# xmcd CD database file
#
# Track frame offsets:
#	150
#	24456
#	55749
#	76563
#	100860
#	127610
#	144632
#	170317
#	189809
#
# Disc length: 2857 seconds
#
# Revision: 0
# Processed by: cddbd v1.4PL0 Copyright (c) Steve Scherf et al.
# Submitted via: CDex 1.50Beta7
#
DISCID=5c0b2709
DTITLE=Butch Hancock - Yella Rose
DYEAR=1985
DGENRE=Country
TTITLE0=Perfection in the Mud
TTITLE1=Yella Rose
TTITLE2=Like a Kiss on the Mouth
TTITLE3=Ain't No Mercy on the Hiway
TTITLE4=Only Makes Me Love You More
TTITLE5=So I'll Run
TTITLE6=Two Roads
TTITLE7=Sharp Cutting Wings
TTITLE8=Tell Me What You Know
EXTD=YEAR: 1985
EXTT0=
EXTT1=
EXTT2=
EXTT3=
EXTT4=
EXTT5=
EXTT6=
EXTT7=
EXTT8=
PLAYORDER=
